<svg xmlns="http://www.w3.org/2000/svg" preserveAspectRatio="xMidYMid" width="52.812" height="39.75"><path d="M16.505 32.594a.93.93 0 0 0 0-1.333L5.16 19.87 16.505 8.478a.93.93 0 0 0 0-1.333l-1.444-1.449a.921.921 0 0 0-1.328 0L.281 19.203a.93.93 0 0 0 0 1.333l13.452 13.508a.923.923 0 0 0 1.328 0l1.444-1.45zm17.06-30.927A.94.94 0 0 0 32.93.508L31.14.014c-.462-.145-.981.145-1.126.638L19.247 38.073a.94.94 0 0 0 .635 1.159l1.79.492c.462.146.981-.144 1.126-.637l10.767-37.42zm18.966 18.869a.93.93 0 0 0 0-1.333L39.079 5.696a.921.921 0 0 0-1.328 0l-1.444 1.449a.93.93 0 0 0 0 1.333L47.652 19.87 36.307 31.261a.93.93 0 0 0 0 1.333l1.444 1.45a.923.923 0 0 0 1.328 0l13.452-13.508z" fill="#c0301c" fill-rule="evenodd"/></svg>