<svg xmlns="http://www.w3.org/2000/svg" preserveAspectRatio="xMidYMid" width="16" height="12"><path d="M16 1.425a6.996 6.996 0 0 1-1.888.468c.68-.374 1.198-.965 1.441-1.669-.629.348-1.34.6-2.081.732A3.402 3.402 0 0 0 11.076 0C9.259 0 7.797 1.359 7.797 3.028c0 .234.03.468.081.694C5.157 3.59 2.731 2.39 1.117.552A2.833 2.833 0 0 0 .67 2.081c0 1.05.579 1.978 1.462 2.522A3.513 3.513 0 0 1 .65 4.218v.038c0 1.472 1.127 2.691 2.629 2.972a3.768 3.768 0 0 1-1.482.056c.416 1.2 1.624 2.072 3.066 2.1a6.918 6.918 0 0 1-4.071 1.294c-.274 0-.528-.01-.792-.038A9.83 9.83 0 0 0 5.035 12c6.031 0 9.33-4.613 9.33-8.616 0-.131 0-.262-.01-.394A6.774 6.774 0 0 0 16 1.425z" fill="#fff" fill-rule="evenodd"/></svg>